<svg width="17" height="18" viewBox="0 0 17 18" fill="none" xmlns="http://www.w3.org/2000/svg">
<path d="M1.93692 4.76418C2.21297 4.67929 2.51797 4.77667 2.692 5.01546C2.88538 5.28077 2.8625 5.64578 2.6375 5.88498L2.0212 6.34052C1.72917 6.58261 1.55929 6.94109 1.55707 7.31992V14.2669C1.5654 15.3985 2.48492 16.3126 3.61902 16.3168H7.11902V16.332C7.49722 16.332 7.8038 16.6379 7.8038 17.0153C7.8038 17.3926 7.49722 17.6986 7.11902 17.6986H3.61902C1.72558 17.6944 0.191684 16.1638 0.1875 14.2745V7.31992C0.199606 6.51629 0.577641 5.76185 1.21467 5.27001L1.8462 4.79929L1.93692 4.76418ZM6.41902 1.07148C7.57437 0.144794 9.22019 0.144794 10.3755 1.07148L15.6332 5.25482C16.2561 5.75481 16.6219 6.50701 16.6299 7.30474L16.6223 14.2669C16.6223 16.1579 15.0859 17.691 13.1908 17.691H11.669C10.7517 17.691 10.0069 16.9512 10.0027 16.0359V12.8927L9.99561 12.8135C9.95824 12.6081 9.77806 12.4523 9.56141 12.4523H7.2788C7.16043 12.4523 7.04702 12.4997 6.96403 12.584C6.88105 12.6682 6.83546 12.7822 6.8375 12.9002V14.0998C6.8375 14.4772 6.53091 14.7831 6.15272 14.7831C5.77452 14.7831 5.46793 14.4772 5.46793 14.0998V12.9002C5.46793 12.419 5.65952 11.9575 6.00056 11.6172C6.34159 11.2769 6.80412 11.0857 7.28641 11.0857H9.56902C10.5704 11.0899 11.3799 11.9011 11.3799 12.9002V16.0359C11.3799 16.1952 11.5093 16.3244 11.669 16.3244H13.2288C14.3634 16.3244 15.2832 15.4066 15.2832 14.2745V7.31992C15.2776 6.93466 15.0988 6.57228 14.7962 6.33293L9.53859 2.14958C8.87561 1.60494 7.91896 1.60494 7.25598 2.14958L5.56685 3.4099C5.25379 3.63423 4.81775 3.56285 4.59293 3.25046C4.36812 2.93808 4.43966 2.50298 4.75272 2.27865L6.41902 1.07148Z" fill="#2F5B60"/>
</svg>
