<svg width="15" height="18" viewBox="0 0 15 18" fill="none" xmlns="http://www.w3.org/2000/svg">
<path d="M7.19194 11.2906C10.2792 11.2906 14.3829 11.6372 14.3829 14.6363C14.3829 17.7982 9.60009 17.9879 7.54929 17.9993L7.19194 18C6.79975 18 6.48146 17.6837 6.48146 17.2918C6.48146 16.9008 6.79975 16.5835 7.19194 16.5835C9.82449 16.5835 12.962 16.2464 12.962 14.6363C12.962 13.3568 11.0209 12.7071 7.19194 12.7071C4.55938 12.7071 1.42096 13.0442 1.42096 14.6552C1.42096 15.0159 1.52705 15.4815 2.3531 15.8857C2.68845 16.05 3.1119 16.1869 3.61112 16.2927C3.99478 16.3739 4.24014 16.7497 4.15772 17.1331C4.07625 17.5156 3.69922 17.762 3.31557 17.678C2.70266 17.5477 2.16838 17.373 1.72788 17.1586C0.300296 16.4598 0 15.4107 0 14.6552C0 11.2906 5.4129 11.2906 7.19194 11.2906ZM7.19213 0C9.87394 0 12.0556 2.17572 12.0556 4.84909C12.0556 7.52247 9.87394 9.69818 7.19213 9.69818C6.09325 9.69818 5.05785 9.34595 4.19959 8.67926C3.88982 8.43846 3.83393 7.99368 4.07549 7.68489C4.31706 7.37704 4.76229 7.32133 5.07206 7.56118C5.67928 8.0324 6.41249 8.2817 7.19213 8.2817C9.09052 8.2817 10.6346 6.74151 10.6346 4.84909C10.6346 2.95667 9.09052 1.41648 7.19213 1.41648C5.29278 1.41648 3.74867 2.95667 3.74867 4.84909C3.74867 5.24004 3.43038 5.55733 3.0382 5.55733C2.64601 5.55733 2.32772 5.24004 2.32772 4.84909C2.32772 2.17572 4.50936 0 7.19213 0Z" fill="white"/>
</svg>