<svg width="19" height="18" viewBox="0 0 19 18" fill="none" xmlns="http://www.w3.org/2000/svg">
<path d="M16.9895 6.19811C17.3409 6.20233 17.6236 6.48721 17.6236 6.83716V12.4885C17.6236 15.7222 15.5975 17.7318 12.3496 17.7318H9.76676C9.41101 17.7318 9.12142 17.4469 9.11719 17.0927C9.12136 16.7373 9.40976 16.4501 9.76676 16.446H12.3496C14.9093 16.446 16.3244 15.0447 16.3476 12.4885V6.83716C16.3476 6.48423 16.635 6.19811 16.9895 6.19811ZM11.7078 0.947142C12.0635 0.951358 12.3496 1.23969 12.3496 1.59389C12.3496 1.76472 12.2809 1.92844 12.1589 2.04851C12.0368 2.16858 11.8716 2.235 11.7 2.23294H6.01622C3.45658 2.23294 2.04142 3.64192 2.04142 6.19811V12.4885C2.04142 15.0447 3.45658 16.446 6.01622 16.446C6.37323 16.4501 6.66163 16.7373 6.6658 17.0927C6.66157 17.4469 6.37198 17.7318 6.01622 17.7318C2.76833 17.7318 0.75 15.7222 0.75 12.4885V6.19811C0.75 2.95668 2.76833 0.947142 6.01622 0.947142H11.7078ZM12.6855 6.79531C12.9113 6.6418 13.2156 6.64621 13.4384 6.81686C13.6891 7.00884 13.7619 7.35399 13.6101 7.6302L11.1355 10.81C11.0272 10.9432 10.8727 11.0311 10.7025 11.0564C10.5331 11.0736 10.3637 11.0238 10.2307 10.9178L7.85669 9.06228L5.72237 11.8264C5.62059 11.9642 5.46755 12.0557 5.29749 12.0803C5.12743 12.1049 4.95457 12.0606 4.8176 11.9572C4.53806 11.739 4.48639 11.3378 4.7016 11.0564L7.23032 7.77649C7.3358 7.6405 7.4913 7.5519 7.6625 7.53023C7.83369 7.50856 8.00652 7.55561 8.14282 7.661L10.5169 9.51655L12.6048 6.86026L12.6855 6.79531ZM15.101 0.444122C15.9503 0.09133 16.9295 0.28309 17.5813 0.92987C18.2331 1.57665 18.4291 2.55087 18.0776 3.39767C17.7262 4.24447 16.8967 4.79683 15.9764 4.79683C14.7238 4.79683 13.7072 3.78806 13.7029 2.54091L13.708 2.38022C13.7657 1.52893 14.3017 0.776161 15.101 0.444122ZM15.9764 1.56309C15.434 1.56309 14.9943 2.00088 14.9943 2.54091C14.9943 3.08095 15.434 3.51873 15.9764 3.51873C16.5188 3.51873 16.9585 3.08095 16.9585 2.54091C16.9585 2.00088 16.5188 1.56309 15.9764 1.56309Z" fill="#F5F5F5"/>
</svg>
