<svg width="19" height="20" viewBox="0 0 19 20" fill="none" xmlns="http://www.w3.org/2000/svg">
<path d="M17.7605 18.9286H16.8025V15.8306H17.7591C17.8705 15.8306 17.9774 15.7865 18.0561 15.7079C18.1349 15.6293 18.1791 15.5227 18.1791 15.4115V2.81786C18.1804 2.08094 17.8886 1.37361 17.3679 0.851062C16.8472 0.328513 16.14 0.0334177 15.4015 0.0305176H3.61316C2.87254 0.0313195 2.16248 0.325236 1.63876 0.847784C1.11504 1.37033 0.820439 2.07884 0.81958 2.81786V16.9332C0.820294 16.9502 0.822139 16.9671 0.825105 16.9838C0.821067 17.0356 0.81958 17.0838 0.81958 17.1229C0.820418 17.8242 1.1 18.4966 1.59699 18.9924C2.09398 19.4883 2.7678 19.7672 3.47062 19.768H16.3824C16.3866 19.768 16.3905 19.7669 16.3946 19.7668H17.7605C17.8719 19.7668 17.9787 19.7226 18.0575 19.6441C18.1362 19.5655 18.1805 19.4589 18.1805 19.3477C18.1805 19.2366 18.1362 19.13 18.0575 19.0514C17.9787 18.9728 17.8719 18.9286 17.7605 18.9286V18.9286ZM1.65958 2.81786C1.6602 2.30107 1.86623 1.80562 2.23247 1.44021C2.59871 1.0748 3.09525 0.869271 3.61316 0.868705H15.4015C15.9173 0.871374 16.4109 1.07809 16.7742 1.44349C17.1374 1.8089 17.3406 2.30317 17.3391 2.81786V14.9925H16.8024V14.9122C16.8024 14.8011 16.7582 14.6945 16.6794 14.6159C16.6007 14.5373 16.4938 14.4931 16.3824 14.4931H3.47062C3.38371 14.4931 3.29787 14.4972 3.21311 14.5053C3.18421 14.508 3.15629 14.5136 3.12767 14.5172C3.07241 14.5242 3.01694 14.5304 2.96282 14.5407C2.92861 14.5472 2.89565 14.5567 2.86192 14.5645C2.8147 14.5753 2.76707 14.5851 2.72088 14.5984C2.68529 14.6086 2.6511 14.6218 2.61616 14.6335C2.57335 14.6478 2.53003 14.661 2.48825 14.6773C2.45306 14.6911 2.41945 14.7077 2.38504 14.7229C2.3452 14.7405 2.30482 14.757 2.26607 14.7765C2.23182 14.7937 2.19925 14.8135 2.16589 14.8322C2.12896 14.8528 2.09147 14.8725 2.05568 14.8948C2.023 14.9152 1.99212 14.938 1.96045 14.9597C1.92601 14.9834 1.89098 15.0062 1.85777 15.0315C1.82729 15.0547 1.7987 15.0799 1.76931 15.1044C1.73721 15.1311 1.70455 15.1571 1.6738 15.1853C1.66923 15.1895 1.66413 15.1931 1.65958 15.1973L1.65958 2.81786ZM3.47062 18.9299C2.9905 18.9293 2.53018 18.7388 2.19066 18.4001C1.85114 18.0613 1.66015 17.602 1.65958 17.1229C1.65866 17.0936 1.65975 17.0643 1.66286 17.0351C1.66839 17.0131 1.67213 16.9906 1.67404 16.968C1.71065 16.5191 1.91633 16.1007 2.24967 15.797C2.58302 15.4933 3.01927 15.3269 3.47062 15.3313H15.9624V16.7116H7.46575C7.35436 16.7116 7.24753 16.7558 7.16877 16.8343C7.09 16.9129 7.04575 17.0195 7.04575 17.1307C7.04575 17.2418 7.09 17.3484 7.16877 17.427C7.24753 17.5056 7.35436 17.5498 7.46575 17.5498H15.9624V18.9299H3.47062Z" fill="#F5F5F5"/>
</svg>
