<svg width="41" height="41" viewBox="0 0 41 41" fill="none" xmlns="http://www.w3.org/2000/svg">
<path opacity="0.5" d="M14.5919 37.0072C14.745 37.1733 14.8265 37.3931 14.8185 37.6189C14.8105 37.8446 14.7138 38.0582 14.5493 38.213L12.6997 39.9425C12.5345 40.096 12.3152 40.1776 12.0899 40.1694C11.8647 40.1613 11.6518 40.0641 11.4982 39.8991L0.726794 28.2907C0.573726 28.1245 0.492424 27.9046 0.500556 27.6788C0.508688 27.453 0.605597 27.2396 0.770224 27.0849L2.62236 25.3579C2.70409 25.2818 2.80001 25.2226 2.90464 25.1836C3.00926 25.1446 3.12055 25.1266 3.23214 25.1306C3.34372 25.1347 3.45342 25.1606 3.55496 25.2071C3.6565 25.2535 3.74789 25.3195 3.82391 25.4013L14.5919 37.0072ZM28.336 15.1648C28.4891 15.3309 28.5704 15.5508 28.5623 15.7766C28.5541 16.0024 28.4572 16.2158 28.2926 16.3706L16.6518 27.2449C16.4866 27.3984 16.2673 27.48 16.042 27.4719C15.8167 27.4637 15.6039 27.3665 15.4502 27.2015L12.6716 24.2032C12.5185 24.037 12.4372 23.8171 12.4454 23.5913C12.4535 23.3656 12.5504 23.1521 12.715 22.9974L24.3533 12.123C24.4349 12.0469 24.5308 11.9877 24.6353 11.9487C24.7399 11.9097 24.8511 11.8918 24.9626 11.8958C25.0741 11.8998 25.1838 11.9258 25.2852 11.9722C25.3867 12.0187 25.478 12.0847 25.554 12.1664L28.336 15.1648ZM18.5525 33.3055C18.8709 33.6487 18.8514 34.1911 18.509 34.5113L16.6569 36.2399C16.5752 36.316 16.4792 36.3753 16.3746 36.4143C16.27 36.4533 16.1587 36.4712 16.0471 36.4672C15.9355 36.4632 15.8258 36.4372 15.7243 36.3908C15.6228 36.3443 15.5314 36.2783 15.4553 36.1965L4.68995 24.5881C4.53677 24.422 4.45532 24.2022 4.46329 23.9764C4.47126 23.7506 4.56802 23.5371 4.73252 23.3823L6.58126 21.6545C6.74642 21.501 6.96573 21.4194 7.19102 21.4276C7.41631 21.4357 7.62916 21.5329 7.7828 21.6979L18.5525 33.3055ZM36.4888 15.5812C36.6418 15.7474 36.7229 15.9674 36.7147 16.1932C36.7064 16.419 36.6093 16.6323 36.4445 16.787L34.5933 18.5156C34.4281 18.6692 34.2087 18.751 33.9833 18.743C33.7578 18.7351 33.5448 18.638 33.3909 18.4731L22.6238 6.86717C22.4704 6.7012 22.3888 6.48135 22.3968 6.2555C22.4047 6.02965 22.5016 5.8161 22.6663 5.66136L24.5227 3.92844C24.6044 3.85239 24.7002 3.79317 24.8048 3.75419C24.9094 3.71521 25.0206 3.69722 25.1321 3.70125C25.2436 3.70528 25.3532 3.73126 25.4547 3.7777C25.5562 3.82413 25.6475 3.89012 25.7234 3.97187L36.4888 15.5812ZM40.4435 11.8854C40.5964 12.0518 40.6776 12.2718 40.6694 12.4976C40.6613 12.7235 40.5645 12.9371 40.4 13.0921L38.5522 14.8199C38.4706 14.896 38.3748 14.9553 38.2702 14.9943C38.1657 15.0334 38.0545 15.0514 37.943 15.0475C37.8315 15.0435 37.7218 15.0176 37.6203 14.9713C37.5188 14.9249 37.4275 14.859 37.3515 14.7773L26.5861 3.1663C26.433 2.99999 26.3517 2.78009 26.3597 2.55423C26.3676 2.32838 26.4643 2.11476 26.6286 1.95964L28.4782 0.228426C28.5597 0.152238 28.6554 0.0928875 28.7599 0.0537798C28.8643 0.0146721 28.9755 -0.00342289 29.087 0.000533013C29.1985 0.00448891 29.3081 0.0304179 29.4095 0.0768321C29.5109 0.123246 29.6022 0.189233 29.6781 0.271004L40.4435 11.8854Z" fill="black"/>
</svg>
