<svg width="17" height="18" viewBox="0 0 17 18" fill="none" xmlns="http://www.w3.org/2000/svg">
<path d="M11.8717 0.0666504C14.6834 0.0666504 16.3674 1.77047 16.375 4.61531V12.9802C16.375 15.8251 14.6987 17.5289 11.8794 17.5289H9.38008C9.05956 17.4931 8.81696 17.2191 8.81696 16.8929C8.81696 16.5666 9.05956 16.2926 9.38008 16.2568H11.8717C14.0205 16.2568 15.1025 15.1543 15.1025 12.9802V4.61531C15.1025 2.44121 14.0205 1.33873 11.8717 1.33873H5.12065C2.97188 1.33873 1.88226 2.44121 1.88226 4.61531V12.9802C1.88226 15.1543 2.97188 16.2568 5.12065 16.2568C5.44116 16.2926 5.68377 16.5666 5.68377 16.8929C5.68377 17.2191 5.44116 17.4931 5.12065 17.5289C2.30896 17.5289 0.625 15.8251 0.625 12.9802V4.61531C0.625 1.76276 2.30896 0.0666504 5.12065 0.0666504H11.8717ZM11.6431 11.8623C11.9882 11.8623 12.268 12.1454 12.268 12.4945C12.268 12.8437 11.9882 13.1267 11.6431 13.1267H5.334C4.98892 13.1267 4.70918 12.8437 4.70918 12.4945C4.70918 12.1454 4.98892 11.8623 5.334 11.8623H11.6431ZM11.6431 8.16173C11.8843 8.13483 12.1193 8.24984 12.2482 8.45776C12.3771 8.66568 12.3771 8.92987 12.2482 9.13779C12.1193 9.34571 11.8843 9.46071 11.6431 9.43382H5.334C5.01348 9.39806 4.77087 9.12404 4.77087 8.79777C4.77087 8.47151 5.01348 8.19749 5.334 8.16173H11.6431ZM7.74184 4.46883C8.06235 4.50459 8.30496 4.77861 8.30496 5.10487C8.30496 5.43114 8.06235 5.70516 7.74184 5.74092H5.34162C5.0211 5.70516 4.77849 5.43114 4.77849 5.10487C4.77849 4.77861 5.0211 4.50459 5.34162 4.46883H7.74184Z" fill="#F5F5F5"/>
</svg>
